<svg width="615" height="182" viewBox="0 0 615 182" fill="none" xmlns="http://www.w3.org/2000/svg">
<rect x="87.5" y="181.054" width="175" height="59" rx="29.5" transform="rotate(-120 87.5 181.054)" fill="white"/>
<rect x="10.75" y="10.75" width="175" height="59" rx="29.5" fill="white" fill-opacity="0.75"/>
<rect x="58" y="151.554" width="175" height="59" rx="29.5" transform="rotate(-60 58 151.554)" fill="white" fill-opacity="0.75"/>
<rect x="87.5" y="181.054" width="175" height="59" rx="29.5" transform="rotate(-120 87.5 181.054)" fill="url(#paint0_linear)"/>
<rect x="10.75" y="10.75" width="175" height="59" rx="29.5" fill="url(#paint1_linear)" fill-opacity="0.75"/>
<rect x="58" y="151.554" width="175" height="59" rx="29.5" transform="rotate(-60 58 151.554)" fill="url(#paint2_linear)" fill-opacity="0.75"/>
<path d="M228.1 31.528C229.655 31.2453 232.128 30.892 235.52 30.468C238.912 29.9027 242.163 29.62 245.272 29.62C248.523 29.62 251.349 29.9027 253.752 30.468C256.296 30.892 258.416 31.74 260.112 33.012C261.808 34.284 263.08 36.0507 263.928 38.312C264.776 40.5733 265.2 43.5413 265.2 47.216V125.656C265.2 138.235 261.596 147.704 254.388 154.064C247.18 160.283 236.58 163.392 222.588 163.392C215.239 163.392 209.303 162.261 204.78 160C201.529 158.445 199.127 156.325 197.572 153.64C196.159 150.955 195.452 147.916 195.452 144.524C195.452 141.697 195.805 139.224 196.512 137.104C197.36 134.984 198.349 133.288 199.48 132.016C202.165 132.581 204.427 133.005 206.264 133.288C208.243 133.429 210.363 133.5 212.624 133.5C218.136 133.5 222.093 132.157 224.496 129.472C226.899 126.645 228.1 122.547 228.1 117.176V31.528Z" fill="#1D3342"/>
<path d="M282.183 28.348C282.183 22.9773 283.95 18.4547 287.483 14.78C291.158 11.1053 295.963 9.26801 301.899 9.26801C307.835 9.26801 312.57 11.1053 316.103 14.78C319.778 18.4547 321.615 22.9773 321.615 28.348C321.615 33.7187 319.778 38.2413 316.103 41.916C312.57 45.5907 307.835 47.428 301.899 47.428C295.963 47.428 291.158 45.5907 287.483 41.916C283.95 38.2413 282.183 33.7187 282.183 28.348ZM319.919 159.788C318.365 160.071 316.033 160.424 312.923 160.848C309.955 161.413 306.917 161.696 303.807 161.696C300.698 161.696 297.871 161.484 295.327 161.06C292.925 160.636 290.875 159.788 289.179 158.516C287.483 157.244 286.141 155.548 285.151 153.428C284.303 151.167 283.879 148.269 283.879 144.736V58.452C285.434 58.1693 287.695 57.816 290.663 57.392C293.773 56.8267 296.882 56.544 299.991 56.544C303.101 56.544 305.857 56.756 308.259 57.18C310.803 57.604 312.923 58.452 314.619 59.724C316.315 60.996 317.587 62.7627 318.435 65.024C319.425 67.144 319.919 69.9707 319.919 73.504V159.788Z" fill="#1D3342"/>
<path d="M372.543 124.596C372.543 128.271 373.674 130.885 375.935 132.44C378.338 133.995 381.659 134.772 385.899 134.772C388.019 134.772 390.21 134.631 392.471 134.348C394.733 133.924 396.711 133.429 398.407 132.864C399.679 134.419 400.739 136.185 401.587 138.164C402.577 140.001 403.071 142.263 403.071 144.948C403.071 150.319 401.022 154.7 396.923 158.092C392.966 161.484 385.899 163.18 375.723 163.18C363.286 163.18 353.675 160.353 346.891 154.7C340.249 149.047 336.927 139.86 336.927 127.14V36.404C338.482 35.98 340.673 35.556 343.499 35.132C346.467 34.5667 349.577 34.284 352.827 34.284C359.046 34.284 363.851 35.4147 367.243 37.676C370.777 39.796 372.543 44.3893 372.543 51.456V65.024H400.315C401.163 66.5787 401.941 68.5573 402.647 70.96C403.495 73.2213 403.919 75.7653 403.919 78.592C403.919 83.5387 402.789 87.1427 400.527 89.404C398.407 91.524 395.51 92.584 391.835 92.584H372.543V124.596Z" fill="#1D3342"/>
<path d="M501.946 129.26C501.946 140.001 497.918 148.411 489.862 154.488C481.806 160.565 469.934 163.604 454.246 163.604C448.31 163.604 442.798 163.18 437.71 162.332C432.622 161.484 428.241 160.212 424.566 158.516C421.033 156.679 418.206 154.417 416.086 151.732C414.107 149.047 413.118 145.867 413.118 142.192C413.118 138.8 413.825 135.973 415.238 133.712C416.651 131.309 418.347 129.331 420.326 127.776C424.425 130.037 429.089 132.087 434.318 133.924C439.689 135.62 445.837 136.468 452.762 136.468C457.143 136.468 460.465 135.832 462.726 134.56C465.129 133.288 466.33 131.592 466.33 129.472C466.33 127.493 465.482 125.939 463.786 124.808C462.09 123.677 459.263 122.759 455.306 122.052L448.946 120.78C436.65 118.377 427.463 114.632 421.386 109.544C415.45 104.315 412.482 96.8947 412.482 87.284C412.482 82.0547 413.613 77.32 415.874 73.08C418.135 68.84 421.315 65.3067 425.414 62.48C429.513 59.6533 434.389 57.4627 440.042 55.908C445.837 54.3533 452.197 53.576 459.122 53.576C464.351 53.576 469.227 54 473.75 54.848C478.414 55.5547 482.442 56.6853 485.834 58.24C489.226 59.7947 491.911 61.844 493.89 64.388C495.869 66.7907 496.858 69.688 496.858 73.08C496.858 76.3307 496.222 79.1573 494.95 81.56C493.819 83.8213 492.335 85.7293 490.498 87.284C489.367 86.5773 487.671 85.8707 485.41 85.164C483.149 84.316 480.675 83.6093 477.99 83.044C475.305 82.3373 472.549 81.772 469.722 81.348C467.037 80.924 464.563 80.712 462.302 80.712C457.638 80.712 454.034 81.2773 451.49 82.408C448.946 83.3973 447.674 85.0227 447.674 87.284C447.674 88.8387 448.381 90.1107 449.794 91.1C451.207 92.0893 453.893 93.008 457.85 93.856L464.422 95.34C477.99 98.4493 487.601 102.76 493.254 108.272C499.049 113.643 501.946 120.639 501.946 129.26Z" fill="#1D3342"/>
<path d="M513.01 58.452C514.423 58.028 516.614 57.604 519.582 57.18C522.691 56.756 525.871 56.544 529.122 56.544C532.231 56.544 534.987 56.756 537.39 57.18C539.934 57.604 542.054 58.452 543.75 59.724C545.446 60.996 546.718 62.7627 547.566 65.024C548.555 67.144 549.05 69.9707 549.05 73.504V119.084C549.05 124.879 550.463 129.048 553.29 131.592C556.116 133.995 560.215 135.196 565.586 135.196C568.836 135.196 571.451 134.913 573.43 134.348C575.55 133.783 577.175 133.217 578.306 132.652V58.452C579.719 58.028 581.91 57.604 584.878 57.18C587.987 56.756 591.167 56.544 594.418 56.544C597.527 56.544 600.283 56.756 602.686 57.18C605.23 57.604 607.35 58.452 609.046 59.724C610.742 60.996 612.014 62.7627 612.862 65.024C613.851 67.144 614.346 69.9707 614.346 73.504V137.952C614.346 145.019 611.378 150.319 605.442 153.852C600.495 156.961 594.559 159.293 587.634 160.848C580.85 162.544 573.43 163.392 565.374 163.392C557.742 163.392 550.675 162.544 544.174 160.848C537.814 159.152 532.302 156.537 527.638 153.004C522.974 149.471 519.37 144.948 516.826 139.436C514.282 133.783 513.01 126.999 513.01 119.084V58.452Z" fill="#1D3342"/>
<defs>
<linearGradient id="paint0_linear" x1="91.3856" y1="210.433" x2="260.642" y2="208.272" gradientUnits="userSpaceOnUse">
<stop stop-color="#0062FF"/>
<stop offset="1" stop-color="#01FFE1"/>
</linearGradient>
<linearGradient id="paint1_linear" x1="185.75" y1="40.75" x2="10.75" y2="40.75" gradientUnits="userSpaceOnUse">
<stop stop-color="#FF0000"/>
<stop offset="1" stop-color="#FAFF00"/>
</linearGradient>
<linearGradient id="paint2_linear" x1="232.077" y1="180.955" x2="57.5077" y2="183.593" gradientUnits="userSpaceOnUse">
<stop stop-color="#FF3880"/>
<stop offset="1" stop-color="#6B33FF"/>
</linearGradient>
</defs>
</svg>
