<svg width="626" height="321" viewBox="0 0 626 321" fill="none" xmlns="http://www.w3.org/2000/svg">
<rect x="87.5" y="244.054" width="175" height="59" rx="29.5" transform="rotate(-120 87.5 244.054)" fill="url(#paint0_linear)"/>
<rect x="10.75" y="73.75" width="175" height="59" rx="29.5" fill="url(#paint1_linear)" fill-opacity="0.75"/>
<rect x="58" y="214.554" width="175" height="59" rx="29.5" transform="rotate(-60 58 214.554)" fill="url(#paint2_linear)" fill-opacity="0.75"/>
<path d="M228.1 94.528C229.655 94.2453 232.128 93.892 235.52 93.468C238.912 92.9027 242.163 92.62 245.272 92.62C248.523 92.62 251.349 92.9027 253.752 93.468C256.296 93.892 258.416 94.74 260.112 96.012C261.808 97.284 263.08 99.0507 263.928 101.312C264.776 103.573 265.2 106.541 265.2 110.216V188.656C265.2 201.235 261.596 210.704 254.388 217.064C247.18 223.283 236.58 226.392 222.588 226.392C215.239 226.392 209.303 225.261 204.78 223C201.529 221.445 199.127 219.325 197.572 216.64C196.159 213.955 195.452 210.916 195.452 207.524C195.452 204.697 195.805 202.224 196.512 200.104C197.36 197.984 198.349 196.288 199.48 195.016C202.165 195.581 204.427 196.005 206.264 196.288C208.243 196.429 210.363 196.5 212.624 196.5C218.136 196.5 222.093 195.157 224.496 192.472C226.899 189.645 228.1 185.547 228.1 180.176V94.528ZM282.183 91.348C282.183 85.9773 283.95 81.4547 287.483 77.78C291.158 74.1053 295.963 72.268 301.899 72.268C307.835 72.268 312.57 74.1053 316.103 77.78C319.778 81.4547 321.615 85.9773 321.615 91.348C321.615 96.7187 319.778 101.241 316.103 104.916C312.57 108.591 307.835 110.428 301.899 110.428C295.963 110.428 291.158 108.591 287.483 104.916C283.95 101.241 282.183 96.7187 282.183 91.348ZM319.919 222.788C318.365 223.071 316.033 223.424 312.923 223.848C309.955 224.413 306.917 224.696 303.807 224.696C300.698 224.696 297.871 224.484 295.327 224.06C292.925 223.636 290.875 222.788 289.179 221.516C287.483 220.244 286.141 218.548 285.151 216.428C284.303 214.167 283.879 211.269 283.879 207.736V121.452C285.434 121.169 287.695 120.816 290.663 120.392C293.773 119.827 296.882 119.544 299.991 119.544C303.101 119.544 305.857 119.756 308.259 120.18C310.803 120.604 312.923 121.452 314.619 122.724C316.315 123.996 317.587 125.763 318.435 128.024C319.425 130.144 319.919 132.971 319.919 136.504V222.788ZM372.543 187.596C372.543 191.271 373.674 193.885 375.935 195.44C378.338 196.995 381.659 197.772 385.899 197.772C388.019 197.772 390.21 197.631 392.471 197.348C394.733 196.924 396.711 196.429 398.407 195.864C399.679 197.419 400.739 199.185 401.587 201.164C402.577 203.001 403.071 205.263 403.071 207.948C403.071 213.319 401.022 217.7 396.923 221.092C392.966 224.484 385.899 226.18 375.723 226.18C363.286 226.18 353.675 223.353 346.891 217.7C340.249 212.047 336.927 202.86 336.927 190.14V99.404C338.482 98.98 340.673 98.556 343.499 98.132C346.467 97.5667 349.577 97.284 352.827 97.284C359.046 97.284 363.851 98.4147 367.243 100.676C370.777 102.796 372.543 107.389 372.543 114.456V128.024H400.315C401.163 129.579 401.941 131.557 402.647 133.96C403.495 136.221 403.919 138.765 403.919 141.592C403.919 146.539 402.789 150.143 400.527 152.404C398.407 154.524 395.51 155.584 391.835 155.584H372.543V187.596ZM501.946 192.26C501.946 203.001 497.918 211.411 489.862 217.488C481.806 223.565 469.934 226.604 454.246 226.604C448.31 226.604 442.798 226.18 437.71 225.332C432.622 224.484 428.241 223.212 424.566 221.516C421.033 219.679 418.206 217.417 416.086 214.732C414.107 212.047 413.118 208.867 413.118 205.192C413.118 201.8 413.825 198.973 415.238 196.712C416.651 194.309 418.347 192.331 420.326 190.776C424.425 193.037 429.089 195.087 434.318 196.924C439.689 198.62 445.837 199.468 452.762 199.468C457.143 199.468 460.465 198.832 462.726 197.56C465.129 196.288 466.33 194.592 466.33 192.472C466.33 190.493 465.482 188.939 463.786 187.808C462.09 186.677 459.263 185.759 455.306 185.052L448.946 183.78C436.65 181.377 427.463 177.632 421.386 172.544C415.45 167.315 412.482 159.895 412.482 150.284C412.482 145.055 413.613 140.32 415.874 136.08C418.135 131.84 421.315 128.307 425.414 125.48C429.513 122.653 434.389 120.463 440.042 118.908C445.837 117.353 452.197 116.576 459.122 116.576C464.351 116.576 469.227 117 473.75 117.848C478.414 118.555 482.442 119.685 485.834 121.24C489.226 122.795 491.911 124.844 493.89 127.388C495.869 129.791 496.858 132.688 496.858 136.08C496.858 139.331 496.222 142.157 494.95 144.56C493.819 146.821 492.335 148.729 490.498 150.284C489.367 149.577 487.671 148.871 485.41 148.164C483.149 147.316 480.675 146.609 477.99 146.044C475.305 145.337 472.549 144.772 469.722 144.348C467.037 143.924 464.563 143.712 462.302 143.712C457.638 143.712 454.034 144.277 451.49 145.408C448.946 146.397 447.674 148.023 447.674 150.284C447.674 151.839 448.381 153.111 449.794 154.1C451.207 155.089 453.893 156.008 457.85 156.856L464.422 158.34C477.99 161.449 487.601 165.76 493.254 171.272C499.049 176.643 501.946 183.639 501.946 192.26ZM513.01 121.452C514.423 121.028 516.614 120.604 519.582 120.18C522.691 119.756 525.871 119.544 529.122 119.544C532.231 119.544 534.987 119.756 537.39 120.18C539.934 120.604 542.054 121.452 543.75 122.724C545.446 123.996 546.718 125.763 547.566 128.024C548.555 130.144 549.05 132.971 549.05 136.504V182.084C549.05 187.879 550.463 192.048 553.29 194.592C556.116 196.995 560.215 198.196 565.586 198.196C568.836 198.196 571.451 197.913 573.43 197.348C575.55 196.783 577.175 196.217 578.306 195.652V121.452C579.719 121.028 581.91 120.604 584.878 120.18C587.987 119.756 591.167 119.544 594.418 119.544C597.527 119.544 600.283 119.756 602.686 120.18C605.23 120.604 607.35 121.452 609.046 122.724C610.742 123.996 612.014 125.763 612.862 128.024C613.851 130.144 614.346 132.971 614.346 136.504V200.952C614.346 208.019 611.378 213.319 605.442 216.852C600.495 219.961 594.559 222.293 587.634 223.848C580.85 225.544 573.43 226.392 565.374 226.392C557.742 226.392 550.675 225.544 544.174 223.848C537.814 222.152 532.302 219.537 527.638 216.004C522.974 212.471 519.37 207.948 516.826 202.436C514.282 196.783 513.01 189.999 513.01 182.084V121.452Z" fill="#1D3342"/>
<defs>
<linearGradient id="paint0_linear" x1="91.3856" y1="273.433" x2="260.642" y2="271.272" gradientUnits="userSpaceOnUse">
<stop stop-color="#0062FF"/>
<stop offset="1" stop-color="#01FFE1"/>
</linearGradient>
<linearGradient id="paint1_linear" x1="185.75" y1="103.75" x2="10.75" y2="103.75" gradientUnits="userSpaceOnUse">
<stop stop-color="#FF0000"/>
<stop offset="1" stop-color="#FFC700"/>
</linearGradient>
<linearGradient id="paint2_linear" x1="232.077" y1="243.955" x2="57.5077" y2="246.593" gradientUnits="userSpaceOnUse">
<stop stop-color="#FF3880"/>
<stop offset="1" stop-color="#6B33FF"/>
</linearGradient>
</defs>
</svg>
