<svg width="636" height="182" viewBox="0 0 636 182" fill="none" xmlns="http://www.w3.org/2000/svg">
<rect x="87.5" y="181.054" width="175" height="59" rx="29.5" transform="rotate(-120 87.5 181.054)" fill="white"/>
<rect x="10.75" y="10.75" width="175" height="59" rx="29.5" fill="white" fill-opacity="0.75"/>
<rect x="58" y="151.554" width="175" height="59" rx="29.5" transform="rotate(-60 58 151.554)" fill="white" fill-opacity="0.75"/>
<rect x="87.5" y="181.054" width="175" height="59" rx="29.5" transform="rotate(-120 87.5 181.054)" fill="url(#paint0_linear)"/>
<rect x="10.75" y="10.75" width="175" height="59" rx="29.5" fill="url(#paint1_linear)" fill-opacity="0.75"/>
<rect x="58" y="151.554" width="175" height="59" rx="29.5" transform="rotate(-60 58 151.554)" fill="url(#paint2_linear)" fill-opacity="0.75"/>
<path d="M249.1 31.5279C250.655 31.2453 253.128 30.8919 256.52 30.4679C259.912 29.9026 263.163 29.6199 266.272 29.6199C269.523 29.6199 272.349 29.9026 274.752 30.4679C277.296 30.8919 279.416 31.7399 281.112 33.0119C282.808 34.2839 284.08 36.0506 284.928 38.3119C285.776 40.5733 286.2 43.5413 286.2 47.2159V125.656C286.2 138.235 282.596 147.704 275.388 154.064C268.18 160.283 257.58 163.392 243.588 163.392C236.239 163.392 230.303 162.261 225.78 160C222.529 158.445 220.127 156.325 218.572 153.64C217.159 150.955 216.452 147.916 216.452 144.524C216.452 141.697 216.805 139.224 217.512 137.104C218.36 134.984 219.349 133.288 220.48 132.016C223.165 132.581 225.427 133.005 227.264 133.288C229.243 133.429 231.363 133.5 233.624 133.5C239.136 133.5 243.093 132.157 245.496 129.472C247.899 126.645 249.1 122.547 249.1 117.176V31.5279Z" fill="white"/>
<path d="M303.183 28.3479C303.183 22.9773 304.95 18.4546 308.483 14.7799C312.158 11.1053 316.963 9.26794 322.899 9.26794C328.835 9.26794 333.57 11.1053 337.103 14.7799C340.778 18.4546 342.615 22.9773 342.615 28.3479C342.615 33.7186 340.778 38.2413 337.103 41.9159C333.57 45.5906 328.835 47.4279 322.899 47.4279C316.963 47.4279 312.158 45.5906 308.483 41.9159C304.95 38.2413 303.183 33.7186 303.183 28.3479ZM340.919 159.788C339.365 160.071 337.033 160.424 333.923 160.848C330.955 161.413 327.917 161.696 324.807 161.696C321.698 161.696 318.871 161.484 316.327 161.06C313.925 160.636 311.875 159.788 310.179 158.516C308.483 157.244 307.141 155.548 306.151 153.428C305.303 151.167 304.879 148.269 304.879 144.736V58.4519C306.434 58.1693 308.695 57.8159 311.663 57.3919C314.773 56.8266 317.882 56.5439 320.991 56.5439C324.101 56.5439 326.857 56.7559 329.259 57.1799C331.803 57.6039 333.923 58.4519 335.619 59.7239C337.315 60.9959 338.587 62.7626 339.435 65.0239C340.425 67.1439 340.919 69.9706 340.919 73.5039V159.788Z" fill="white"/>
<path d="M393.543 124.596C393.543 128.271 394.674 130.885 396.935 132.44C399.338 133.995 402.659 134.772 406.899 134.772C409.019 134.772 411.21 134.631 413.471 134.348C415.733 133.924 417.711 133.429 419.407 132.864C420.679 134.419 421.739 136.185 422.587 138.164C423.577 140.001 424.071 142.263 424.071 144.948C424.071 150.319 422.022 154.7 417.923 158.092C413.966 161.484 406.899 163.18 396.723 163.18C384.286 163.18 374.675 160.353 367.891 154.7C361.249 149.047 357.927 139.86 357.927 127.14V36.4039C359.482 35.9799 361.673 35.5559 364.499 35.1319C367.467 34.5666 370.577 34.2839 373.827 34.2839C380.046 34.2839 384.851 35.4146 388.243 37.6759C391.777 39.7959 393.543 44.3893 393.543 51.4559V65.0239H421.315C422.163 66.5786 422.941 68.5573 423.647 70.9599C424.495 73.2213 424.919 75.7653 424.919 78.5919C424.919 83.5386 423.789 87.1426 421.527 89.4039C419.407 91.5239 416.51 92.5839 412.835 92.5839H393.543V124.596Z" fill="white"/>
<path d="M522.946 129.26C522.946 140.001 518.918 148.411 510.862 154.488C502.806 160.565 490.934 163.604 475.246 163.604C469.31 163.604 463.798 163.18 458.71 162.332C453.622 161.484 449.241 160.212 445.566 158.516C442.033 156.679 439.206 154.417 437.086 151.732C435.107 149.047 434.118 145.867 434.118 142.192C434.118 138.8 434.825 135.973 436.238 133.712C437.651 131.309 439.347 129.331 441.326 127.776C445.425 130.037 450.089 132.087 455.318 133.924C460.689 135.62 466.837 136.468 473.762 136.468C478.143 136.468 481.465 135.832 483.726 134.56C486.129 133.288 487.33 131.592 487.33 129.472C487.33 127.493 486.482 125.939 484.786 124.808C483.09 123.677 480.263 122.759 476.306 122.052L469.946 120.78C457.65 118.377 448.463 114.632 442.386 109.544C436.45 104.315 433.482 96.8946 433.482 87.2839C433.482 82.0546 434.613 77.3199 436.874 73.0799C439.135 68.8399 442.315 65.3066 446.414 62.4799C450.513 59.6533 455.389 57.4626 461.042 55.9079C466.837 54.3533 473.197 53.5759 480.122 53.5759C485.351 53.5759 490.227 53.9999 494.75 54.8479C499.414 55.5546 503.442 56.6853 506.834 58.2399C510.226 59.7946 512.911 61.8439 514.89 64.3879C516.869 66.7906 517.858 69.6879 517.858 73.0799C517.858 76.3306 517.222 79.1573 515.95 81.5599C514.819 83.8213 513.335 85.7293 511.498 87.2839C510.367 86.5773 508.671 85.8706 506.41 85.1639C504.149 84.3159 501.675 83.6093 498.99 83.044C496.305 82.3373 493.549 81.7719 490.722 81.3479C488.037 80.9239 485.563 80.7119 483.302 80.7119C478.638 80.7119 475.034 81.2773 472.49 82.4079C469.946 83.3973 468.674 85.0226 468.674 87.2839C468.674 88.8386 469.381 90.1106 470.794 91.0999C472.207 92.0893 474.893 93.0079 478.85 93.8559L485.422 95.3399C498.99 98.4493 508.601 102.76 514.254 108.272C520.049 113.643 522.946 120.639 522.946 129.26Z" fill="white"/>
<path d="M534.01 58.4519C535.423 58.0279 537.614 57.6039 540.582 57.1799C543.691 56.7559 546.871 56.5439 550.122 56.5439C553.231 56.5439 555.987 56.7559 558.39 57.1799C560.934 57.6039 563.054 58.4519 564.75 59.7239C566.446 60.9959 567.718 62.7626 568.566 65.0239C569.555 67.1439 570.05 69.9706 570.05 73.5039V119.084C570.05 124.879 571.463 129.048 574.29 131.592C577.116 133.995 581.215 135.196 586.586 135.196C589.836 135.196 592.451 134.913 594.43 134.348C596.55 133.783 598.175 133.217 599.306 132.652V58.4519C600.719 58.0279 602.91 57.6039 605.878 57.1799C608.987 56.7559 612.167 56.5439 615.418 56.5439C618.527 56.5439 621.283 56.7559 623.686 57.1799C626.23 57.6039 628.35 58.4519 630.046 59.7239C631.742 60.9959 633.014 62.7626 633.862 65.0239C634.851 67.1439 635.346 69.9706 635.346 73.5039V137.952C635.346 145.019 632.378 150.319 626.442 153.852C621.495 156.961 615.559 159.293 608.634 160.848C601.85 162.544 594.43 163.392 586.374 163.392C578.742 163.392 571.675 162.544 565.174 160.848C558.814 159.152 553.302 156.537 548.638 153.004C543.974 149.471 540.37 144.948 537.826 139.436C535.282 133.783 534.01 126.999 534.01 119.084V58.4519Z" fill="white"/>
<defs>
<linearGradient id="paint0_linear" x1="91.3856" y1="210.433" x2="260.642" y2="208.272" gradientUnits="userSpaceOnUse">
<stop stop-color="#0062FF"/>
<stop offset="1" stop-color="#01FFE1"/>
</linearGradient>
<linearGradient id="paint1_linear" x1="185.75" y1="40.75" x2="10.75" y2="40.75" gradientUnits="userSpaceOnUse">
<stop stop-color="#FF0000"/>
<stop offset="1" stop-color="#FAFF00"/>
</linearGradient>
<linearGradient id="paint2_linear" x1="232.077" y1="180.955" x2="57.5077" y2="183.593" gradientUnits="userSpaceOnUse">
<stop stop-color="#FF3880"/>
<stop offset="1" stop-color="#6B33FF"/>
</linearGradient>
</defs>
</svg>
