<svg width="1345" height="225" viewBox="0 0 1345 225" fill="none" xmlns="http://www.w3.org/2000/svg">
<circle cx="107.886" cy="116.876" r="107.886" fill="url(#paint0_linear)"/>
<circle cx="128.114" cy="107.886" r="107.886" fill="url(#paint1_linear)"/>
<path d="M146.457 78.8352C153.452 78.8352 158.535 80.7466 161.707 84.5692C164.96 88.3106 166.587 94.5326 166.587 103.235V136.541C166.587 138.412 165.896 140.039 164.513 141.421C163.13 142.804 161.504 143.495 159.633 143.495H150.971C149.1 143.495 147.474 142.804 146.091 141.421C144.79 140.039 144.139 138.412 144.139 136.541V103.235C144.139 100.47 143.732 98.5992 142.919 97.6232C142.106 96.6472 140.642 96.1592 138.527 96.1592C136.9 96.1592 135.355 96.6879 133.891 97.7452C132.508 98.8026 131.817 99.8192 131.817 100.795V136.541C131.817 138.412 131.126 140.039 129.743 141.421C128.36 142.804 126.734 143.495 124.863 143.495H116.201C114.33 143.495 112.704 142.804 111.321 141.421C110.02 140.039 109.369 138.412 109.369 136.541V103.235C109.369 100.47 108.962 98.5992 108.149 97.6232C107.336 96.6472 105.872 96.1592 103.757 96.1592C102.13 96.1592 100.585 96.6879 99.1209 97.7452C97.7383 98.8026 97.0469 99.8192 97.0469 100.795V136.541C97.0469 138.412 96.3556 140.039 94.9729 141.421C93.5903 142.804 91.9636 143.495 90.0929 143.495H80.8209C78.9503 143.495 77.3236 142.804 75.9409 141.421C74.5583 140.039 73.8669 138.412 73.8669 136.541V87.0092C73.8669 85.1386 74.5583 83.5119 75.9409 82.1292C77.3236 80.7466 78.9503 80.0552 80.8209 80.0552H88.2629C90.2149 80.0552 91.8823 80.7466 93.2649 82.1292C94.6476 83.4306 95.4203 85.0572 95.5829 87.0092L95.7049 88.4732C95.7049 88.5546 95.7456 88.5952 95.8269 88.5952C95.9896 88.5952 96.0709 88.5546 96.0709 88.4732C98.2669 85.4639 100.87 83.1052 103.879 81.3972C106.97 79.6892 109.979 78.8352 112.907 78.8352C116.648 78.8352 119.617 79.4859 121.813 80.7872C124.09 82.0886 126.246 84.4472 128.279 87.8632C128.279 87.9446 128.32 87.9852 128.401 87.9852C128.564 87.9852 128.686 87.9446 128.767 87.8632C134.786 81.8446 140.682 78.8352 146.457 78.8352Z" fill="white"/>
<path d="M410.496 54.64C422.651 54.64 431.484 57.9613 436.996 64.604C442.649 71.1053 445.476 81.9173 445.476 97.04V154.916C445.476 158.167 444.275 160.993 441.872 163.396C439.469 165.799 436.643 167 433.392 167H418.34C415.089 167 412.263 165.799 409.86 163.396C407.599 160.993 406.468 158.167 406.468 154.916V97.04C406.468 92.2347 405.761 88.984 404.348 87.288C402.935 85.592 400.391 84.744 396.716 84.744C393.889 84.744 391.204 85.6627 388.66 87.5C386.257 89.3373 385.056 91.104 385.056 92.8V154.916C385.056 158.167 383.855 160.993 381.452 163.396C379.049 165.799 376.223 167 372.972 167H357.92C354.669 167 351.843 165.799 349.44 163.396C347.179 160.993 346.048 158.167 346.048 154.916V97.04C346.048 92.2347 345.341 88.984 343.928 87.288C342.515 85.592 339.971 84.744 336.296 84.744C333.469 84.744 330.784 85.6627 328.24 87.5C325.837 89.3373 324.636 91.104 324.636 92.8V154.916C324.636 158.167 323.435 160.993 321.032 163.396C318.629 165.799 315.803 167 312.552 167H296.44C293.189 167 290.363 165.799 287.96 163.396C285.557 160.993 284.356 158.167 284.356 154.916V68.844C284.356 65.5933 285.557 62.7667 287.96 60.364C290.363 57.9613 293.189 56.76 296.44 56.76H309.372C312.764 56.76 315.661 57.9613 318.064 60.364C320.467 62.6253 321.809 65.452 322.092 68.844L322.304 71.388C322.304 71.5293 322.375 71.6 322.516 71.6C322.799 71.6 322.94 71.5293 322.94 71.388C326.756 66.1587 331.279 62.06 336.508 59.092C341.879 56.124 347.108 54.64 352.196 54.64C358.697 54.64 363.856 55.7707 367.672 58.032C371.629 60.2933 375.375 64.392 378.908 70.328C378.908 70.4693 378.979 70.54 379.12 70.54C379.403 70.54 379.615 70.4693 379.756 70.328C390.215 59.8693 400.461 54.64 410.496 54.64Z" fill="#1D3342"/>
<path d="M520.918 122.48V121.208C520.918 119.936 520.282 119.3 519.01 119.3H512.438C498.305 119.3 491.238 123.54 491.238 132.02C491.238 138.38 494.771 141.56 501.838 141.56C507.35 141.56 511.873 139.864 515.406 136.472C519.081 132.939 520.918 128.275 520.918 122.48ZM508.198 54.64C526.854 54.64 540.351 58.032 548.69 64.816C557.029 71.6 561.198 82.3413 561.198 97.04V154.916C561.198 158.167 559.997 160.993 557.594 163.396C555.191 165.799 552.365 167 549.114 167H535.758C532.366 167 529.469 165.869 527.066 163.608C524.663 161.205 523.391 158.308 523.25 154.916V153.22C523.25 153.079 523.179 153.008 523.038 153.008C522.897 153.008 522.755 153.079 522.614 153.22C513.569 163.82 502.403 169.12 489.118 169.12C479.225 169.12 471.098 166.011 464.738 159.792C458.378 153.432 455.198 145.235 455.198 135.2C455.198 109.76 474.278 97.04 512.438 97.04H519.01C520.282 97.04 520.918 96.404 520.918 95.132V94.92C520.918 86.44 515.971 82.2 506.078 82.2C497.598 82.2 486.645 83.472 473.218 86.016C470.25 86.5813 467.565 85.9453 465.162 84.108C462.759 82.1293 461.558 79.5853 461.558 76.476V73.084C461.558 69.5507 462.618 66.3707 464.738 63.544C466.999 60.7173 469.826 59.0213 473.218 58.456C487.21 55.912 498.87 54.64 508.198 54.64Z" fill="#1D3342"/>
<path d="M642.967 119.3V101.28C642.967 96.3333 641.342 92.3053 638.091 89.196C634.841 85.9453 630.813 84.32 626.007 84.32C614.701 84.32 609.047 92.8 609.047 109.76C609.047 117.816 610.531 123.893 613.499 127.992C616.609 132.091 620.778 134.14 626.007 134.14C630.671 134.14 634.629 132.656 637.879 129.688C641.271 126.72 642.967 123.257 642.967 119.3ZM670.103 56.76C673.354 56.76 676.181 57.9613 678.583 60.364C680.986 62.7667 682.187 65.5933 682.187 68.844V156.4C682.187 175.339 676.393 189.967 664.803 200.284C653.355 210.601 637.243 215.76 616.467 215.76C608.411 215.76 600.355 215.124 592.299 213.852C588.907 213.287 586.081 211.591 583.819 208.764C581.558 206.079 580.427 202.969 580.427 199.436V190.744C580.427 187.776 581.558 185.444 583.819 183.748C586.222 182.193 588.907 181.769 591.875 182.476C598.235 184.172 605.726 185.02 614.347 185.02C624.241 185.02 631.449 182.829 635.971 178.448C640.635 174.067 642.967 166.717 642.967 156.4V151.1C642.967 150.959 642.897 150.888 642.755 150.888C642.473 150.888 642.331 150.959 642.331 151.1C634.699 159.58 624.665 163.82 612.227 163.82C599.931 163.82 589.755 159.015 581.699 149.404C573.785 139.652 569.827 126.437 569.827 109.76C569.827 92.2347 573.643 78.6667 581.275 69.056C589.049 59.4453 599.366 54.64 612.227 54.64C624.523 54.64 634.982 59.94 643.603 70.54C643.745 70.6813 643.886 70.752 644.027 70.752C644.169 70.752 644.239 70.6813 644.239 70.54V68.844C644.381 65.452 645.653 62.6253 648.055 60.364C650.458 57.9613 653.355 56.76 656.747 56.76H670.103Z" fill="#1D3342"/>
<path d="M737.938 70.54C746.701 59.94 757.513 54.64 770.374 54.64C783.236 54.64 792.422 58.3147 797.934 65.664C803.588 73.0133 806.414 85.592 806.414 103.4V154.916C806.414 158.167 805.213 160.993 802.81 163.396C800.408 165.799 797.581 167 794.33 167H779.278C776.028 167 773.201 165.799 770.798 163.396C768.396 160.993 767.194 158.167 767.194 154.916V103.4C767.194 96.8987 766.276 92.4467 764.438 90.044C762.601 87.6413 759.28 86.44 754.474 86.44C750.517 86.44 746.842 87.9947 743.45 91.104C740.2 94.2133 738.574 97.6053 738.574 101.28V154.916C738.574 158.167 737.373 160.993 734.97 163.396C732.568 165.799 729.741 167 726.49 167H710.378C707.128 167 704.301 165.799 701.898 163.396C699.496 160.993 698.294 158.167 698.294 154.916V68.844C698.294 65.5933 699.496 62.7667 701.898 60.364C704.301 57.9613 707.128 56.76 710.378 56.76H724.794C728.186 56.76 731.084 57.9613 733.486 60.364C735.889 62.6253 737.161 65.452 737.302 68.844V70.54C737.302 70.6813 737.373 70.752 737.514 70.752C737.797 70.752 737.938 70.6813 737.938 70.54Z" fill="#1D3342"/>
<path d="M855.992 56.76C859.243 56.76 862.07 57.9613 864.472 60.364C866.875 62.7667 868.076 65.5933 868.076 68.844V154.916C868.076 158.167 866.875 160.993 864.472 163.396C862.07 165.799 859.243 167 855.992 167H837.76C834.51 167 831.683 165.799 829.28 163.396C826.878 160.993 825.676 158.167 825.676 154.916V68.844C825.676 65.5933 826.878 62.7667 829.28 60.364C831.683 57.9613 834.51 56.76 837.76 56.76H855.992ZM855.992 7.99998C859.243 7.99998 862.07 9.20132 864.472 11.604C866.875 14.0067 868.076 16.8333 868.076 20.084V25.596C868.076 28.8467 866.875 31.6733 864.472 34.076C862.07 36.4787 859.243 37.68 855.992 37.68H837.76C834.51 37.68 831.683 36.4787 829.28 34.076C826.878 31.6733 825.676 28.8467 825.676 25.596V20.084C825.676 16.8333 826.878 14.0067 829.28 11.604C831.683 9.20132 834.51 7.99998 837.76 7.99998H855.992Z" fill="#1D3342"/>
<path d="M966.489 61C969.74 61 972.566 62.2013 974.969 64.604C977.372 67.0067 978.573 69.8333 978.573 73.084V76.476C978.573 79.7267 977.372 82.5533 974.969 84.956C972.566 87.3587 969.74 88.56 966.489 88.56H947.621C946.349 88.56 945.713 89.196 945.713 90.468V120.36C945.713 128.84 946.42 134.14 947.833 136.26C949.246 138.38 952.426 139.44 957.373 139.44C959.352 139.44 961.754 139.228 964.581 138.804C967.549 138.38 970.234 139.157 972.637 141.136C975.181 142.973 976.453 145.376 976.453 148.344V153.856C976.453 157.389 975.322 160.569 973.061 163.396C970.941 166.081 968.185 167.636 964.793 168.06C959.846 168.767 953.84 169.12 946.773 169.12C931.65 169.12 920.98 165.869 914.761 159.368C908.542 152.867 905.433 141.277 905.433 124.6V90.468C905.433 89.196 904.797 88.56 903.525 88.56H895.257C892.006 88.56 889.18 87.3587 886.777 84.956C884.374 82.5533 883.173 79.7267 883.173 76.476V73.084C883.173 69.8333 884.374 67.0067 886.777 64.604C889.18 62.2013 892.006 61 895.257 61H903.525C904.797 61 905.433 60.364 905.433 59.092V32.804C905.433 29.5533 906.634 26.7267 909.037 24.324C911.44 21.9213 914.266 20.72 917.517 20.72H933.629C936.88 20.72 939.706 21.9213 942.109 24.324C944.512 26.7267 945.713 29.5533 945.713 32.804V59.092C945.713 60.364 946.349 61 947.621 61H966.489Z" fill="#1D3342"/>
<path d="M1088.55 56.76C1091.81 56.76 1094.63 57.9613 1097.03 60.364C1099.44 62.7667 1100.64 65.5933 1100.64 68.844V154.916C1100.64 158.167 1099.44 160.993 1097.03 163.396C1094.63 165.799 1091.81 167 1088.55 167H1074.14C1070.75 167 1067.85 165.869 1065.45 163.608C1063.04 161.205 1061.77 158.308 1061.63 154.916V153.22C1061.63 153.079 1061.56 153.008 1061.42 153.008C1061.14 153.008 1060.99 153.079 1060.99 153.22C1052.23 163.82 1041.42 169.12 1028.56 169.12C1016.12 169.12 1007.15 165.657 1001.63 158.732C996.264 151.807 993.579 139.723 993.579 122.48V68.844C993.579 65.5933 994.78 62.7667 997.183 60.364C999.585 57.9613 1002.41 56.76 1005.66 56.76H1020.71C1023.97 56.76 1026.79 57.9613 1029.19 60.364C1031.6 62.7667 1032.8 65.5933 1032.8 68.844V120.36C1032.8 126.861 1033.65 131.313 1035.34 133.716C1037.18 136.119 1040.22 137.32 1044.46 137.32C1048.42 137.32 1052.02 135.765 1055.27 132.656C1058.66 129.547 1060.36 126.155 1060.36 122.48V68.844C1060.36 65.5933 1061.56 62.7667 1063.96 60.364C1066.37 57.9613 1069.19 56.76 1072.44 56.76H1088.55Z" fill="#1D3342"/>
<path d="M1185.65 123.54V100.22C1185.65 96.1213 1183.81 92.4467 1180.13 89.196C1176.6 85.9453 1172.43 84.32 1167.63 84.32C1155.61 84.32 1149.61 93.5067 1149.61 111.88C1149.61 121.067 1151.23 127.992 1154.48 132.656C1157.73 137.179 1162.11 139.44 1167.63 139.44C1172.43 139.44 1176.6 137.815 1180.13 134.564C1183.81 131.313 1185.65 127.639 1185.65 123.54ZM1212.78 7.99998C1216.03 7.99998 1218.86 9.20132 1221.26 11.604C1223.66 14.0067 1224.87 16.8333 1224.87 20.084V154.916C1224.87 158.167 1223.66 160.993 1221.26 163.396C1218.86 165.799 1216.03 167 1212.78 167H1199.43C1196.03 167 1193.14 165.869 1190.73 163.608C1188.33 161.205 1187.06 158.308 1186.92 154.916V153.22C1186.92 153.079 1186.85 153.008 1186.71 153.008C1186.56 153.008 1186.42 153.079 1186.28 153.22C1177.66 163.82 1166.5 169.12 1152.79 169.12C1140.49 169.12 1130.31 164.103 1122.26 154.068C1114.34 144.033 1110.39 129.971 1110.39 111.88C1110.39 93.3653 1114.2 79.232 1121.83 69.48C1129.47 59.5867 1139.78 54.64 1152.79 54.64C1164.09 54.64 1174.48 58.8093 1183.95 67.148C1184.09 67.2893 1184.23 67.36 1184.37 67.36C1184.52 67.36 1184.59 67.2893 1184.59 67.148V20.084C1184.59 16.8333 1185.79 14.0067 1188.19 11.604C1190.59 9.20132 1193.42 7.99998 1196.67 7.99998H1212.78Z" fill="#1D3342"/>
<path d="M1305.77 101.28C1307.04 101.28 1307.68 100.644 1307.68 99.372C1307.54 92.8707 1306.12 88.2067 1303.44 85.38C1300.89 82.5533 1297.01 81.14 1291.78 81.14C1286.27 81.14 1282.1 82.5533 1279.27 85.38C1276.58 88.0653 1274.89 92.8 1274.18 99.584C1274.18 100.715 1274.75 101.28 1275.88 101.28H1305.77ZM1290.72 54.64C1326.62 54.64 1344.64 73.5787 1344.78 111.456C1344.78 114.848 1343.51 117.745 1340.96 120.148C1338.42 122.409 1335.38 123.54 1331.85 123.54H1276.3C1275.03 123.54 1274.54 124.176 1274.82 125.448C1276.09 131.384 1278.85 135.553 1283.09 137.956C1287.47 140.359 1294.25 141.56 1303.44 141.56C1309.23 141.56 1316.3 140.712 1324.64 139.016C1327.61 138.309 1330.29 138.945 1332.69 140.924C1335.1 142.761 1336.3 145.235 1336.3 148.344V151.736C1336.3 155.269 1335.17 158.52 1332.91 161.488C1330.79 164.315 1328.03 166.011 1324.64 166.576C1316.02 168.272 1306.83 169.12 1297.08 169.12C1277.01 169.12 1261.53 164.244 1250.65 154.492C1239.91 144.599 1234.54 130.395 1234.54 111.88C1234.54 93.5067 1239.34 79.3733 1248.95 69.48C1258.56 59.5867 1272.49 54.64 1290.72 54.64Z" fill="#1D3342"/>
<defs>
<linearGradient id="paint0_linear" x1="107.886" y1="8.99048" x2="107.886" y2="224.762" gradientUnits="userSpaceOnUse">
<stop stop-color="#8BE4F2"/>
<stop offset="1" stop-color="#68C4F5"/>
</linearGradient>
<linearGradient id="paint1_linear" x1="128.114" y1="0" x2="128.114" y2="215.771" gradientUnits="userSpaceOnUse">
<stop stop-color="#8B8AF7" stop-opacity="0.52"/>
<stop offset="1" stop-color="#7E42F5"/>
</linearGradient>
</defs>
</svg>
